<svg width="3354" height="702" viewBox="0 0 3354 702" fill="none" xmlns="http://www.w3.org/2000/svg">
<path fill-rule="evenodd" clip-rule="evenodd" d="M728.008 5.11554C758.223 5.11561 781.187 8.8902 794.482 15.1782C831.345 33.4135 833.158 42.2163 833.158 227.084C833.158 397.491 837.995 450.314 857.333 489.3C887.549 550.293 956.44 580.476 1030.17 564.756C1057.36 558.468 1069.45 551.552 1093.02 528.286C1138.34 482.383 1141.36 465.404 1141.36 250.98C1141.36 92.5205 1142.57 68.626 1152.24 49.1329C1167.35 16.4349 1195.15 4.48695 1250.14 6.37337C1295.46 8.25978 1295.47 8.26044 1297.28 104.467C1297.88 156.659 1300.9 200.046 1303.93 200.046C1306.95 200.042 1316.61 188.725 1326.28 174.265C1371 106.983 1457.42 45.3601 1544.44 19.5789C1599.44 3.85909 1812.16 0.0852558 1868.96 14.5476C1975.93 41.5864 2025.48 95.6647 2025.48 187.471C2025.48 240.291 2009.16 279.277 1975.93 306.945C1962.63 318.262 1951.15 330.209 1951.15 332.725C1951.15 335.24 1961.42 343.415 1974.12 351.589C2006.75 371.711 2029.11 394.979 2043.61 423.276C2054.49 443.397 2056.91 459.117 2056.91 505.018C2056.91 568.527 2050.26 586.763 2014.6 624.492C1986.8 652.788 1966.86 663.48 1910.66 678.572C1869.57 689.262 1842.98 690.52 1667.12 690.52C1469.51 690.52 1469.51 690.518 1453.19 673.54C1431.43 651.533 1429.62 638.955 1432.64 553.439C1434.46 489.93 1437.48 474.837 1451.98 442.14C1474.95 389.949 1513.62 350.961 1569.83 323.293C1624.82 296.255 1659.87 288.71 1751.72 283.68C1793.42 281.793 1829.08 276.762 1841.16 270.474C1881.05 251.61 1892.53 188.102 1861.71 156.032C1837.54 130.879 1808.53 124.589 1717.28 124.589C1626.63 124.589 1589.77 130.88 1535.98 156.032C1458.63 192.503 1412.1 254.126 1312.99 454.715C1263.43 554.064 1242.28 589.907 1219.32 613.802C1183.06 651.53 1132.3 680.457 1080.32 693.662C1034.4 704.352 946.772 704.979 898.426 694.29C790.857 669.137 711.086 584.248 687.517 467.29C680.266 429.56 678.453 339.012 680.87 120.189L682.079 5.11554H728.008ZM1869.57 417.614C1820.01 393.09 1728.16 389.947 1667.12 410.697C1631.46 422.645 1596.42 452.83 1585.54 481.126C1575.87 504.392 1573.45 559.098 1580.7 567.272C1583.73 569.787 1644.16 571.045 1715.47 569.788C1824.85 567.901 1849.02 566.014 1866.54 556.582C1922.14 528.286 1923.35 444.024 1869.57 417.614Z" fill="#2563EB"/>
<path fill-rule="evenodd" clip-rule="evenodd" d="M2725.89 105.725C2799.01 29.6398 2898.12 -5.57324 3020.8 0.71483C3122.93 6.37422 3199.07 40.9591 3265.55 112.014C3327.79 179.297 3353.17 249.723 3353.17 355.363C3353.17 459.745 3321.75 535.831 3249.83 605C3182.15 670.396 3119.3 695.55 3011.73 701.209C2893.89 707.497 2803.24 672.282 2725.28 591.795C2701.12 566.647 2679.36 545.9 2676.94 545.892C2675.13 545.892 2663.04 563.497 2649.74 584.248C2622.55 629.522 2568.76 672.912 2523.44 688.004C2482.35 701.208 2380.82 704.981 2337.92 694.92C2267.21 677.942 2206.17 627.638 2177.16 561.614C2147.55 494.96 2144.53 457.229 2145.74 223.941L2147.55 8.25841L2186.84 6.37337C2232.76 3.85829 2264.79 12.0325 2281.11 30.896C2291.99 43.4722 2292.59 59.1936 2296.22 256.011C2298.64 393.719 2302.26 475.464 2307.1 491.185C2311.33 504.39 2324.02 526.398 2335.5 539.603C2362.69 571.043 2406.81 582.364 2461.2 572.304C2541.57 556.583 2583.27 492.442 2625.57 319.52C2651.56 210.736 2677.54 155.401 2725.89 105.725ZM2996.7 126.337C2875.33 126.337 2776.94 228.705 2776.94 354.98C2776.94 481.255 2875.33 583.621 2996.7 583.621C3118.06 583.619 3216.44 481.254 3216.44 354.98C3216.44 228.706 3118.06 126.338 2996.7 126.337Z" fill="#2563EB"/>
<path d="M61.4445 8.25841C68.7106 6.37221 178.085 5.11587 304.378 6.37337C550.939 8.25979 550.943 8.25966 567.864 41.5859C587.202 78.0569 574.512 113.901 521.332 174.896C501.993 196.905 395.63 324.551 275.371 469.805C239.721 513.187 211.323 551.541 212.523 554.694C213.732 559.095 270.538 561.614 380.524 561.614C561.819 561.614 565.447 562.241 589.015 599.969C604.123 623.235 594.454 657.192 567.864 676.056C547.317 690.519 547.315 690.518 298.94 689.889C162.369 689.889 44.5303 687.374 37.8755 684.23C2.82502 669.768 -11.6798 611.288 10.6797 574.189C21.5574 555.324 183.516 359.136 318.279 200.676C342.452 172.38 360.582 146.598 358.77 143.453C356.353 139.681 295.92 137.168 210.712 137.168C131.546 137.168 59.6293 134.65 51.7731 131.506C25.1839 120.816 11.2859 99.4373 11.2858 70.5127C11.2858 48.5044 14.3068 40.9581 30.0191 27.7532C40.2925 18.9499 54.1927 10.1448 61.4445 8.25841Z" fill="#2563EB"/>
</svg>
