<svg width="3083" height="702" viewBox="0 0 3083 702" fill="none" xmlns="http://www.w3.org/2000/svg">
<path d="M48.7976 697.008C46.0994 694.512 44.0008 691.08 44.0008 689.52C44.0008 687.96 54.194 678.6 66.7855 668.616C79.3771 658.632 109.357 634.296 133.341 614.64C157.625 594.984 209.19 553.8 247.864 522.912C286.538 492.024 347.997 443.04 383.973 414.024C482.007 335.088 462.52 343.2 555.158 343.2C612.12 343.2 634.305 344.136 637.003 346.944C646.297 356.616 637.303 403.104 620.214 433.68C610.021 452.088 583.339 481.104 565.651 492.96C557.856 498.264 542.266 505.752 530.874 509.808C519.782 513.864 509.888 518.856 509.289 520.728C508.389 523.224 550.061 524.472 650.194 524.784C791.999 525.72 791.999 525.72 792.898 532.896C795.896 553.488 732.039 620.568 678.975 653.016C638.502 677.976 592.932 693.264 541.667 698.88C525.478 700.44 413.653 702 283.24 702C78.1779 702 52.9948 701.376 48.7976 697.008Z" fill="#2563EB"/>
<path d="M153.727 353.808C147.731 347.568 147.731 338.208 153.727 314.184C167.818 257.088 207.091 214.032 264.953 192.504C276.045 188.136 285.039 183.456 284.739 182.208C284.14 180.648 221.182 179.088 144.733 178.464C-11.7618 177.528 -6.06561 178.464 4.72715 156.312C12.8217 140.088 57.1919 91.416 82.6749 71.448C124.946 38.064 192.101 10.608 250.862 3.12C266.452 1.248 366.285 0 509.289 0C716.749 0 742.532 0.624 746.729 4.992C753.625 11.856 749.128 18.72 726.943 35.256C716.45 42.744 674.178 76.44 632.506 109.512C591.134 142.896 541.967 181.896 523.679 196.56C505.091 211.224 468.216 240.552 441.534 261.768C415.152 283.296 376.778 313.56 356.391 329.784L319.816 358.8H239.17C169.617 358.8 157.625 358.176 153.727 353.808Z" fill="#2563EB"/>
<path fill-rule="evenodd" clip-rule="evenodd" d="M1519.57 144.487C1537.56 144.487 1551.24 146.735 1559.16 150.479C1581.11 161.34 1582.19 166.582 1582.19 276.681C1582.19 378.168 1585.07 409.627 1596.59 432.845C1614.58 469.17 1655.61 487.146 1699.52 477.784C1715.72 474.039 1722.92 469.92 1736.95 456.064C1763.94 428.726 1765.75 418.614 1765.75 290.912C1765.75 196.541 1766.46 182.311 1772.22 170.701C1781.22 151.228 1797.78 144.112 1830.53 145.236C1857.52 146.359 1857.52 146.36 1858.6 203.656C1858.96 234.739 1860.76 260.578 1862.56 260.578C1864.36 260.576 1870.12 253.836 1875.87 245.225C1902.51 205.154 1953.98 168.454 2005.8 153.1C2038.56 143.738 2165.24 141.491 2199.07 150.104C2262.77 166.207 2292.29 198.414 2292.29 253.089C2292.29 284.547 2282.57 307.765 2262.77 324.243C2254.86 330.983 2248.02 338.098 2248.02 339.596C2248.02 341.094 2254.14 345.963 2261.7 350.831C2281.13 362.815 2294.45 376.672 2303.08 393.524C2309.56 405.508 2311 414.869 2311 442.206C2311 480.03 2307.04 490.89 2285.81 513.359C2269.25 530.211 2257.38 536.579 2223.91 545.567C2199.43 551.934 2183.59 552.683 2078.86 552.683C1961.17 552.683 1961.17 552.682 1951.45 542.571C1938.5 529.464 1937.42 521.973 1939.22 471.044C1940.3 433.221 1942.1 424.232 1950.74 404.759C1964.41 373.676 1987.45 350.457 2020.92 333.979C2053.67 317.876 2074.54 313.383 2129.25 310.387C2154.08 309.264 2175.32 306.267 2182.52 302.522C2206.27 291.288 2213.11 253.465 2194.75 234.366C2180.36 219.386 2163.08 215.64 2108.73 215.64C2054.75 215.64 2032.79 219.386 2000.76 234.366C1954.7 256.086 1926.98 292.786 1867.96 412.248C1838.45 471.416 1825.85 492.762 1812.17 506.993C1790.58 529.462 1760.35 546.69 1729.39 554.554C1702.04 560.921 1649.86 561.294 1621.06 554.928C1557 539.948 1509.49 489.392 1495.45 419.737C1491.14 397.267 1490.06 343.34 1491.5 213.019L1492.22 144.487H1519.57ZM2199.43 390.152C2169.92 375.547 2115.21 373.675 2078.86 386.033C2057.63 393.148 2036.75 411.125 2030.28 427.977C2024.52 441.834 2023.08 474.414 2027.4 479.282C2029.2 480.78 2065.19 481.529 2107.66 480.78C2172.8 479.657 2187.19 478.533 2197.63 472.916C2230.74 456.064 2231.46 405.881 2199.43 390.152Z" fill="#2563EB"/>
<path fill-rule="evenodd" clip-rule="evenodd" d="M2709.42 204.405C2752.97 159.092 2811.99 138.121 2885.05 141.866C2945.88 145.236 2991.22 165.833 3030.81 208.151C3067.88 248.221 3083 290.164 3083 353.078C3083 415.244 3064.29 460.557 3021.46 501.751C2981.15 540.698 2943.72 555.679 2879.65 559.049C2809.47 562.794 2755.49 541.822 2709.06 493.887C2694.66 478.91 2681.71 466.553 2680.27 466.549C2679.19 466.549 2671.99 477.034 2664.07 489.392C2647.87 516.355 2615.84 542.197 2588.85 551.185C2564.37 559.049 2503.91 561.295 2478.36 555.304C2436.25 545.192 2399.9 515.233 2382.62 475.912C2364.99 436.216 2363.19 413.746 2363.91 274.809L2364.99 146.358L2388.38 145.236C2415.73 143.738 2434.81 148.606 2444.53 159.84C2451.01 167.33 2451.37 176.693 2453.53 293.909C2454.97 375.922 2457.12 424.605 2460 433.968C2462.52 441.832 2470.08 454.939 2476.92 462.804C2493.11 481.528 2519.39 488.27 2551.78 482.279C2599.65 472.916 2624.48 434.717 2649.67 331.732C2665.15 266.945 2680.63 233.99 2709.42 204.405ZM2870.7 216.68C2798.42 216.68 2739.82 277.646 2739.82 352.85C2739.82 428.054 2798.42 489.018 2870.7 489.018C2942.98 489.018 3001.57 428.053 3001.57 352.85C3001.57 277.647 2942.98 216.681 2870.7 216.68Z" fill="#2563EB"/>
<path d="M1122.59 146.358C1126.92 145.235 1192.06 144.487 1267.27 145.236C1414.11 146.359 1414.12 146.359 1424.19 166.207C1435.71 187.927 1428.15 209.275 1396.48 245.6C1384.96 258.708 1321.62 334.728 1250 421.235C1228.77 447.071 1211.85 469.913 1212.57 471.791C1213.29 474.412 1247.12 475.912 1312.62 475.912C1420.59 475.912 1422.75 476.286 1436.79 498.755C1445.79 512.611 1440.03 532.834 1424.19 544.069C1411.96 552.682 1411.96 552.682 1264.04 552.307C1182.7 552.307 1112.52 550.81 1108.56 548.937C1087.68 540.324 1079.04 505.496 1092.36 483.401C1098.84 472.166 1195.29 355.326 1275.55 260.954C1289.95 244.102 1300.75 228.747 1299.67 226.875C1298.23 224.628 1262.24 223.131 1211.49 223.131C1164.34 223.131 1121.51 221.631 1116.83 219.759C1101 213.393 1092.72 200.66 1092.72 183.434C1092.72 170.327 1094.52 165.833 1103.88 157.969C1110 152.726 1118.27 147.482 1122.59 146.358Z" fill="#2563EB"/>
</svg>
