<svg width="825" height="702" viewBox="0 0 825 702" fill="none" xmlns="http://www.w3.org/2000/svg">
<path d="M50.7667 697.008C47.9596 694.512 45.7764 691.08 45.7764 689.52C45.7764 687.96 56.3809 678.6 69.4805 668.616C82.5802 658.632 113.77 634.296 138.722 614.64C163.985 594.984 217.631 553.8 257.866 522.912C298.101 492.024 362.04 443.04 399.467 414.024C501.457 335.088 481.184 343.2 577.56 343.2C636.821 343.2 659.901 344.136 662.708 346.944C672.377 356.616 663.02 403.104 645.242 433.68C634.637 452.088 606.878 481.104 588.477 492.96C580.367 498.264 564.149 505.752 552.297 509.808C540.756 513.864 530.464 518.856 529.84 520.728C528.904 523.224 572.258 524.472 676.431 524.784C823.958 525.72 823.959 525.72 824.894 532.896C828.013 553.488 761.579 620.568 706.373 653.016C664.267 677.976 616.859 693.264 563.525 698.88C546.682 700.44 430.345 702 294.67 702C81.3326 702 55.1333 701.376 50.7667 697.008Z" fill="#2563EB"/>
<path d="M159.931 353.808C153.693 347.568 153.693 338.208 159.931 314.184C174.59 257.088 215.448 214.032 275.644 192.504C287.184 188.136 296.541 183.456 296.229 182.208C295.606 180.648 230.107 179.088 150.574 178.464C-12.2364 177.528 -6.31037 178.464 4.91791 156.312C13.3391 140.088 59.4998 91.416 86.011 71.448C129.988 38.064 199.853 10.608 260.985 3.12C277.204 1.248 381.065 0 529.84 0C745.672 0 772.496 0.624 776.862 4.992C784.036 11.856 779.357 18.72 756.277 35.256C745.361 42.744 701.383 76.44 658.03 109.512C614.988 142.896 563.837 181.896 544.811 196.56C525.473 211.224 487.11 240.552 459.351 261.768C431.904 283.296 391.982 313.56 370.773 329.784L332.721 358.8H248.821C176.461 358.8 163.985 358.176 159.931 353.808Z" fill="#2563EB"/>
</svg>
