<svg width="816" height="829" viewBox="0 0 816 829" fill="none" xmlns="http://www.w3.org/2000/svg">
<path d="M553.638 817.962C538.573 711.119 473.922 649.5 398 649.5H240C210.001 649.5 179.001 616.5 179 560.5C178.999 505.78 250.742 407.061 337.398 258.503C340.564 253.075 337.983 246.099 332.125 243.824C220.842 200.6 194.016 117.584 180.094 8.81119C179.452 3.79227 175.193 4.75478e-05 170.133 4.75478e-05H10C4.47715 4.75478e-05 9.56516e-09 4.4772 9.56516e-09 10V168C9.56516e-09 173.523 4.47716 178 10 178H161.537C169.266 178 174.061 186.405 170.118 193.053C72.1275 358.283 0.00091412 452.731 9.56516e-09 560.5C-0.000941489 671.5 69.5007 812.5 240 829H543.883C549.824 829 554.468 823.844 553.638 817.962Z" fill="#2563EB"/>
<path d="M262.362 11.0385C277.427 117.882 342.078 179.5 418 179.5L576 179.5C605.999 179.5 636.999 212.5 637 268.5C637.001 323.221 565.258 421.939 478.602 570.497C475.436 575.925 478.017 582.901 483.875 585.176C595.158 628.4 621.984 711.417 635.906 820.189C636.548 825.208 640.807 829 645.867 829H806C811.523 829 816 824.523 816 819V661C816 655.477 811.523 651 806 651H654.463C646.734 651 641.939 642.595 645.882 635.947C743.873 470.718 815.999 376.269 816 268.5C816.001 157.5 746.499 16.5 576 2.65663e-05L272.117 0C266.177 -5.19302e-07 261.532 5.15655 262.362 11.0385Z" fill="#2563EB"/>
</svg>
