<svg width="864" height="702" viewBox="0 0 864 702" fill="none" xmlns="http://www.w3.org/2000/svg">
<path d="M217.525 412.366C215.862 410.889 214.569 408.859 214.569 407.936C214.569 407.013 220.852 401.475 228.614 395.569C236.376 389.662 254.856 375.264 269.64 363.635C284.609 352.006 316.396 327.641 340.236 309.367C364.075 291.093 401.96 262.113 424.137 244.946C484.568 198.246 472.555 203.045 529.66 203.045C564.773 203.045 578.448 203.599 580.112 205.26C585.841 210.982 580.296 238.486 569.763 256.575C563.479 267.466 547.032 284.632 536.128 291.647C531.323 294.784 521.713 299.215 514.691 301.614C507.853 304.014 501.755 306.967 501.385 308.075C500.831 309.551 526.518 310.29 588.243 310.474C675.655 311.028 675.655 311.028 676.21 315.274C678.058 327.456 638.695 367.142 605.984 386.339C581.036 401.106 552.945 410.151 521.344 413.474C511.364 414.396 442.432 415.319 362.042 415.319C235.636 415.319 220.113 414.95 217.525 412.366Z" fill="#2563EB"/>
<path d="M282.207 209.321C278.511 205.629 278.511 200.092 282.207 185.879C290.893 152.099 315.102 126.626 350.769 113.89C357.607 111.306 363.151 108.537 362.967 107.798C362.597 106.876 323.788 105.953 276.663 105.583C180.195 105.03 183.706 105.583 190.359 92.4778C195.349 82.8793 222.7 54.0838 238.408 42.2703C264.466 22.5195 305.862 6.27594 342.084 1.84586C351.693 0.738346 413.233 0 501.385 0C629.27 0 645.163 0.369173 647.75 2.95338C652.001 7.01428 649.228 11.0752 635.553 20.8583C629.085 25.2883 603.027 45.2237 577.34 64.7898C551.837 84.5406 521.529 107.614 510.256 116.289C498.798 124.965 476.067 142.316 459.619 154.868C443.356 167.604 419.701 185.509 407.135 195.108L384.589 212.274H334.876C292.002 212.274 284.609 211.905 282.207 209.321Z" fill="#2563EB"/>
<path fill-rule="evenodd" clip-rule="evenodd" d="M187.522 529.299C195.305 529.299 201.22 530.235 204.644 531.793C214.14 536.312 214.607 538.493 214.607 584.307C214.607 626.537 215.852 639.628 220.834 649.289C228.617 664.404 246.362 671.884 265.352 667.989C272.357 666.43 275.471 664.716 281.542 658.951C293.216 647.575 293.995 643.367 293.995 590.229C293.995 550.96 294.306 545.038 296.797 540.207C300.688 532.104 307.849 529.143 322.014 529.611C333.688 530.078 333.689 530.079 334.156 553.92C334.311 566.854 335.09 577.606 335.868 577.606C336.647 577.606 339.137 574.801 341.627 571.218C353.146 554.544 375.406 539.273 397.821 532.883C411.987 528.988 466.779 528.053 481.411 531.637C508.964 538.337 521.728 551.739 521.728 574.49C521.728 587.58 517.525 597.241 508.964 604.098C505.539 606.903 502.582 609.863 502.581 610.487C502.581 611.11 505.228 613.136 508.497 615.162C516.903 620.148 522.662 625.915 526.398 632.927C529.199 637.913 529.822 641.809 529.822 653.184C529.822 668.923 528.11 673.442 518.926 682.792C511.765 689.804 506.629 692.454 492.153 696.194C481.568 698.843 474.718 699.155 429.42 699.155C378.519 699.155 378.519 699.155 374.316 694.947C368.712 689.493 368.245 686.376 369.024 665.184C369.491 649.445 370.269 645.705 374.005 637.602C379.92 624.668 389.883 615.006 404.359 608.149C418.524 601.449 427.553 599.579 451.213 598.333C461.953 597.865 471.138 596.618 474.251 595.06C484.525 590.385 487.482 574.646 479.544 566.699C473.317 560.466 465.845 558.907 442.34 558.907C418.991 558.907 409.496 560.466 395.642 566.699C375.717 575.737 363.731 591.008 338.202 640.718C325.438 665.339 319.99 674.221 314.075 680.143C304.736 689.493 291.659 696.661 278.272 699.934C266.442 702.583 243.872 702.738 231.419 700.089C203.711 693.856 183.163 672.819 177.092 643.834C175.224 634.484 174.757 612.045 175.38 557.816L175.691 529.299H187.522ZM481.568 631.524C468.803 625.446 445.142 624.667 429.42 629.81C420.236 632.771 411.208 640.251 408.406 647.263C405.916 653.029 405.293 666.586 407.161 668.612C407.94 669.235 423.506 669.547 441.873 669.235C470.048 668.768 476.275 668.3 480.789 665.963C495.11 658.95 495.421 638.069 481.568 631.524Z" fill="#2563EB"/>
<path fill-rule="evenodd" clip-rule="evenodd" d="M702.141 554.232C720.976 535.377 746.504 526.65 778.104 528.209C804.41 529.611 824.024 538.182 841.147 555.791C857.18 572.465 863.717 589.917 863.717 616.097C863.717 641.965 855.623 660.82 837.099 677.962C819.665 694.168 803.476 700.402 775.769 701.804C745.414 703.362 722.065 694.635 701.985 674.689C695.759 668.457 690.156 663.315 689.532 663.314C689.065 663.314 685.951 667.677 682.527 672.819C675.522 684.039 661.668 694.792 649.993 698.532C639.408 701.804 613.257 702.739 602.205 700.246C583.993 696.038 568.271 683.572 560.799 667.21C553.172 650.692 552.394 641.341 552.705 583.528L553.172 530.078L563.29 529.611C575.12 528.988 583.37 531.013 587.573 535.688C590.375 538.805 590.531 542.701 591.465 591.476C592.088 625.602 593.022 645.86 594.267 649.756C595.356 653.029 598.625 658.483 601.583 661.755C608.587 669.547 619.951 672.352 633.96 669.859C654.663 665.963 665.404 650.068 676.301 607.214C682.994 580.256 689.688 566.543 702.141 554.232ZM771.895 559.34C740.634 559.34 715.291 584.709 715.291 616.002C715.291 647.295 740.634 672.663 771.895 672.663C803.156 672.663 828.499 647.295 828.499 616.002C828.499 584.709 803.156 559.34 771.895 559.34Z" fill="#2563EB"/>
<path d="M15.827 530.078C17.6986 529.611 45.8716 529.299 78.4024 529.611C141.912 530.078 141.913 530.078 146.272 538.337C151.253 547.375 147.984 556.258 134.286 571.374C129.305 576.828 101.907 608.461 70.9306 644.458C61.7478 655.209 54.433 664.713 54.7422 665.495C55.0536 666.586 69.6857 667.21 98.0162 667.21C144.715 667.21 145.649 667.365 151.72 676.715C155.611 682.481 153.121 690.896 146.272 695.571C140.979 699.155 140.979 699.154 77.0016 698.999C41.8233 698.999 11.4702 698.375 9.75604 697.596C0.727676 694.012 -3.00852 679.52 2.75089 670.326C5.55281 665.651 47.2704 617.032 81.9831 577.763C88.2095 570.75 92.8796 564.361 92.4127 563.582C91.7901 562.647 76.2237 562.024 54.2756 562.024C33.8838 562.024 15.3594 561.4 13.3358 560.621C6.48694 557.972 2.90706 552.674 2.90702 545.506C2.90702 540.052 3.68518 538.182 7.73239 534.909C10.3786 532.728 13.9591 530.546 15.827 530.078Z" fill="#2563EB"/>
</svg>
