<svg width="2108" height="609" viewBox="0 0 2108 609" fill="none" xmlns="http://www.w3.org/2000/svg">
<path d="M483.72 104.4L481.4 107.3L143.84 501.7H483.72V609H0V504.6L2.32 501.7L339.88 107.3H0V0H483.72V104.4Z" fill="#2563EB"/>
<path d="M863.964 501.7V232.58L971.264 179.22V609H756.664C755.504 609 754.344 609 753.184 609C715.484 608.42 679.524 597.98 648.784 580C632.544 570.72 617.464 559.12 604.704 545.78C565.264 506.92 541.484 453.56 541.484 393.82V232.58L648.784 179.22V393.82C648.784 423.4 660.964 450.66 680.684 469.8C699.824 489.52 727.084 501.7 756.664 501.7H863.964Z" fill="#2563EB"/>
<path d="M1247.24 179.22C1305.24 179.8 1358.02 203.58 1396.3 241.86C1435.16 280.72 1458.94 334.66 1458.94 393.82C1458.94 453.56 1435.16 506.92 1396.3 545.78C1357.44 585.22 1303.5 609 1244.34 609C1184.6 609 1131.24 585.22 1092.38 545.78C1052.94 506.92 1029.16 453.56 1029.16 393.82V53.36L1136.46 0V393.82C1136.46 423.4 1148.64 450.66 1168.36 469.8C1187.5 489.52 1214.76 501.7 1244.34 501.7C1303.5 501.7 1351.64 453.56 1351.64 393.82C1351.64 364.24 1339.46 337.56 1320.32 317.84C1300.6 298.7 1273.92 286.52 1244.34 286.52H1190.4V179.22H1244.34C1245.5 179.22 1246.08 179.22 1247.24 179.22Z" fill="#2563EB"/>
<path d="M1610.49 483.72C1610.49 493.58 1618.61 501.7 1628.47 501.7C1629.05 501.7 1630.21 501.7 1630.79 501.12V609C1561.77 609 1505.51 552.74 1505.51 483.72V53.36L1610.49 0V483.72Z" fill="#2563EB"/>
<path d="M1892.6 179.22C2010.92 179.22 2107.2 275.5 2107.2 393.82C2107.2 512.72 2010.92 609 1892.6 609C1773.7 609 1677.42 512.72 1677.42 393.82C1677.42 275.5 1773.7 179.22 1892.6 179.22ZM1999.9 393.82C1999.9 334.66 1951.76 286.52 1892.6 286.52C1832.86 286.52 1784.72 334.66 1784.72 393.82C1784.72 453.56 1832.86 501.7 1892.6 501.7C1951.76 501.7 1999.9 453.56 1999.9 393.82Z" fill="#2563EB"/>
</svg>
