<svg width="1129" height="1050" viewBox="0 0 1129 1050" fill="none" xmlns="http://www.w3.org/2000/svg">
<path d="M674.673 571.132C664.152 496.53 619.005 453.506 565.987 453.506H455.651C434.702 453.506 413.054 430.464 413.053 391.362C413.053 353.155 463.153 284.226 523.667 180.497C525.877 176.707 524.075 171.836 519.985 170.247C442.273 140.067 423.539 82.1013 413.818 6.15231C413.369 2.64791 410.395 3.26974e-05 406.862 3.26974e-05H295.036C291.18 3.26974e-05 288.053 3.12614 288.053 6.9824V117.304C288.053 121.16 291.18 124.286 295.036 124.286H400.858C406.256 124.286 409.605 130.155 406.851 134.797C338.422 250.166 288.054 316.114 288.053 391.362C288.053 468.867 336.587 567.318 455.651 578.839H667.861C672.009 578.839 675.252 575.239 674.673 571.132Z" fill="#2563EB"/>
<path d="M471.267 7.7075C481.787 82.3094 526.935 125.334 579.953 125.334H690.289C711.238 125.334 732.886 148.376 732.886 187.477C732.887 225.685 682.787 294.614 622.273 398.343C620.062 402.133 621.865 407.004 625.955 408.592C703.667 438.773 722.401 496.738 732.122 572.687C732.571 576.191 735.545 578.839 739.078 578.839H850.903C854.76 578.839 857.887 575.713 857.887 571.857V461.535C857.887 457.679 854.76 454.553 850.903 454.553H745.081C739.684 454.553 736.335 448.684 739.089 444.042C807.518 328.673 857.886 262.725 857.887 187.477C857.887 109.973 809.352 11.5209 690.289 0H478.079C473.931 -3.62596e-07 470.688 3.60049 471.267 7.7075Z" fill="#2563EB"/>
<path d="M259.168 777.689C259.168 778.977 258.73 780.226 257.925 781.232L94.0182 972.714C87.3538 980.5 92.886 992.518 103.135 992.518H247.168C253.795 992.518 259.168 997.89 259.168 1004.52V1038C259.168 1044.63 253.795 1050 247.168 1050H12C5.37259 1050 0 1044.63 0 1038V996.061C0 994.773 0.438361 993.523 1.24298 992.518L165.15 801.035C171.814 793.25 166.282 781.232 156.033 781.232H12C5.3726 781.232 0 775.859 0 769.232V735.75C0 729.123 5.37258 723.75 12 723.75H247.168C253.795 723.75 259.168 729.123 259.168 735.75V777.689Z" fill="#2563EB"/>
<path d="M450.896 992.518C457.523 992.518 462.896 987.145 462.896 980.518V855.781C462.896 851.226 465.475 847.064 469.553 845.036L503.042 828.384C511.02 824.417 520.385 830.22 520.385 839.129V1038C520.385 1044.63 515.013 1050 508.385 1050H405.406C404.785 1050 404.163 1050 403.542 1050C383.343 1049.69 364.076 1044.1 347.606 1034.46C338.905 1029.49 330.826 1023.28 323.989 1016.13C302.858 995.314 290.117 966.728 290.117 934.725V855.781C290.117 851.226 292.696 847.064 296.774 845.036L330.264 828.384C338.241 824.417 347.606 830.22 347.606 839.129V934.725C347.606 950.571 354.132 965.175 364.698 975.428C374.953 985.993 389.558 992.518 405.406 992.518H450.896Z" fill="#2563EB"/>
<path d="M668.248 819.76C699.323 820.071 727.602 832.811 748.111 853.318C768.932 874.136 781.673 903.032 781.673 934.725C781.673 966.728 768.932 995.314 748.111 1016.13C727.291 1037.26 698.391 1050 666.694 1050C634.686 1050 606.097 1037.26 585.277 1016.13C564.145 995.314 551.404 966.728 551.404 934.725V759.77C551.404 755.216 553.983 751.053 558.062 749.025L591.551 732.373C599.528 728.407 608.894 734.209 608.894 743.118V934.725C608.894 950.571 615.42 965.175 625.985 975.428C636.24 985.993 650.846 992.518 666.694 992.518C698.391 992.518 724.183 966.728 724.183 934.725C724.183 918.878 717.657 904.586 707.403 894.021C696.837 883.768 682.542 877.243 666.694 877.243H649.794C643.167 877.243 637.794 871.87 637.794 865.243V831.76C637.794 825.133 643.167 819.76 649.794 819.76H666.694C667.315 819.76 667.626 819.76 668.248 819.76Z" fill="#2563EB"/>
<path d="M862.869 982.885C862.869 988.168 867.219 992.518 872.502 992.518C872.987 992.518 873.745 993.035 873.745 993.52V1038C873.745 1044.63 868.326 1050.11 861.804 1048.93C830.49 1043.28 806.623 1015.79 806.623 982.885V759.698C806.623 755.181 809.159 751.046 813.186 749L845.432 732.612C853.415 728.555 862.869 734.354 862.869 743.309V982.885Z" fill="#2563EB"/>
<path d="M1014.02 819.76C1077.41 819.76 1129 871.339 1129 934.725C1129 998.421 1077.41 1050 1014.02 1050C950.317 1050 898.732 998.421 898.732 934.725C898.732 871.339 950.317 819.76 1014.02 819.76ZM1071.51 934.725C1071.51 903.032 1045.72 877.243 1014.02 877.243C982.014 877.243 956.221 903.032 956.221 934.725C956.221 966.728 982.014 992.518 1014.02 992.518C1045.72 992.518 1071.51 966.728 1071.51 934.725Z" fill="#2563EB"/>
</svg>
